# xmcd
#
# Track frame offsets:
#	150
#	9765
#	30622
#	41957
#	53440
#	65487
#	78060
#	90595
#	104970
#	116587
#
# Disc length: 1708 seconds
#
# Revision: 0
# Processed by: cddbd v1.4b42PL1 Copyright (c) Steve Scherf et al.
# Submitted via: EZCDDA 4.3.3.2
#
DISCID=7506aa0a
DTITLE=Hank Snow - I've Been Everywhere
DYEAR=1900
DGENRE=
TTITLE0=Six Days on the Road
TTITLE1=El Paso
TTITLE2=When It's Springtime in Alaska
TTITLE3=Caribbean
TTITLE4=Bluebird Island
TTITLE5=Hello Love
TTITLE6=I've Been Everywhere
TTITLE7=Somewhere Along Life's Highway
TTITLE8=The Last Ride
TTITLE9=I Went To Your Wedding
EXTD=
EXTT0=
EXTT1=
EXTT2=
EXTT3=
EXTT4=
EXTT5=
EXTT6=
EXTT7=
EXTT8=
EXTT9=
PLAYORDER=
